<svg width="144" height="25" viewBox="0 0 144 25" fill="none" xmlns="http://www.w3.org/2000/svg">
<g clip-path="url(#clip0_540_2695)">
<path d="M19.0195 0.587891H5.01953C2.25853 0.587891 0.0195312 2.82689 0.0195312 5.58789V19.5879C0.0195312 22.3489 2.25853 24.5879 5.01953 24.5879H19.0195C21.7815 24.5879 24.0195 22.3489 24.0195 19.5879V5.58789C24.0195 2.82689 21.7815 0.587891 19.0195 0.587891ZM8.01953 19.5879H5.01953V8.58789H8.01953V19.5879ZM6.51953 7.31989C5.55353 7.31989 4.76953 6.52989 4.76953 5.55589C4.76953 4.58189 5.55353 3.79189 6.51953 3.79189C7.48553 3.79189 8.26953 4.58189 8.26953 5.55589C8.26953 6.52989 7.48653 7.31989 6.51953 7.31989ZM20.0195 19.5879H17.0195V13.9839C17.0195 10.6159 13.0195 10.8709 13.0195 13.9839V19.5879H10.0195V8.58789H13.0195V10.3529C14.4155 7.76689 20.0195 7.57589 20.0195 12.8289V19.5879Z" fill="#1E1E1E"/>
</g>
<g clip-path="url(#clip1_540_2695)">
<path d="M59.6345 3.77202C56.0305 3.52602 48.0035 3.52702 44.4045 3.77202C40.5075 4.03802 40.0485 6.39202 40.0195 12.588C40.0485 18.773 40.5035 21.137 44.4045 21.404C48.0045 21.649 56.0305 21.65 59.6345 21.404C63.5315 21.138 63.9905 18.784 64.0195 12.588C63.9905 6.40302 63.5355 4.03902 59.6345 3.77202ZM49.0195 16.588V8.58802L57.0195 12.581L49.0195 16.588Z" fill="#1E1E1E"/>
</g>
<g clip-path="url(#clip2_540_2695)">
<path d="M92.0195 2.75089C95.2235 2.75089 95.6035 2.76289 96.8695 2.82089C100.122 2.96889 101.641 4.51189 101.789 7.73989C101.847 9.00489 101.858 9.38489 101.858 12.5889C101.858 15.7939 101.846 16.1729 101.789 17.4379C101.64 20.6629 100.125 22.2089 96.8695 22.3569C95.6035 22.4149 95.2255 22.4269 92.0195 22.4269C88.8155 22.4269 88.4355 22.4149 87.1705 22.3569C83.9105 22.2079 82.3995 20.6579 82.2515 17.4369C82.1935 16.1719 82.1815 15.7929 82.1815 12.5879C82.1815 9.38389 82.1945 9.00489 82.2515 7.73889C82.4005 4.51189 83.9155 2.96789 87.1705 2.81989C88.4365 2.76289 88.8155 2.75089 92.0195 2.75089ZM92.0195 0.587891C88.7605 0.587891 88.3525 0.601891 87.0725 0.659891C82.7145 0.859891 80.2925 3.27789 80.0925 7.63989C80.0335 8.92089 80.0195 9.32889 80.0195 12.5879C80.0195 15.8469 80.0335 16.2559 80.0915 17.5359C80.2915 21.8939 82.7095 24.3159 87.0715 24.5159C88.3525 24.5739 88.7605 24.5879 92.0195 24.5879C95.2785 24.5879 95.6875 24.5739 96.9675 24.5159C101.322 24.3159 103.75 21.8979 103.947 17.5359C104.006 16.2559 104.02 15.8469 104.02 12.5879C104.02 9.32889 104.006 8.92089 103.948 7.64089C103.752 3.28689 101.331 0.860891 96.9685 0.660891C95.6875 0.601891 95.2785 0.587891 92.0195 0.587891ZM92.0195 6.42589C88.6165 6.42589 85.8575 9.18489 85.8575 12.5879C85.8575 15.9909 88.6165 18.7509 92.0195 18.7509C95.4225 18.7509 98.1815 15.9919 98.1815 12.5879C98.1815 9.18489 95.4225 6.42589 92.0195 6.42589ZM92.0195 16.5879C89.8105 16.5879 88.0195 14.7979 88.0195 12.5879C88.0195 10.3789 89.8105 8.58789 92.0195 8.58789C94.2285 8.58789 96.0195 10.3789 96.0195 12.5879C96.0195 14.7979 94.2285 16.5879 92.0195 16.5879ZM98.4255 4.74289C97.6295 4.74289 96.9845 5.38789 96.9845 6.18289C96.9845 6.97789 97.6295 7.62289 98.4255 7.62289C99.2205 7.62289 99.8645 6.97789 99.8645 6.18289C99.8645 5.38789 99.2205 4.74289 98.4255 4.74289Z" fill="#1E1E1E"/>
</g>
<path d="M134.293 10.7514L143.222 0.587891H141.107L133.351 9.41094L127.161 0.587891H120.02L129.382 13.9312L120.02 24.5879H122.135L130.32 15.2685L136.858 24.5879H144M122.898 2.14979H126.147L141.105 23.1027H137.855" fill="#1E1E1E"/>
<defs>
<clipPath id="clip0_540_2695">
<rect width="24" height="24" fill="white" transform="translate(0.0195312 0.587891)"/>
</clipPath>
<clipPath id="clip1_540_2695">
<rect width="24" height="24" fill="white" transform="translate(40.0195 0.587891)"/>
</clipPath>
<clipPath id="clip2_540_2695">
<rect width="24" height="24" fill="white" transform="translate(80.0195 0.587891)"/>
</clipPath>
</defs>
</svg>
