<svg width="94" height="27" viewBox="0 0 94 27" fill="none" xmlns="http://www.w3.org/2000/svg">
<path fill-rule="evenodd" clip-rule="evenodd" d="M12.589 22.5938C12.0565 22.6771 11.3748 22.7188 10.5441 22.7188H8.08379C7.29565 22.7188 6.63531 22.625 6.10278 22.4375C5.59155 22.25 5.17618 21.9792 4.85666 21.625C4.55845 21.2917 4.34544 20.875 4.21763 20.375C4.08982 19.8958 4.02592 19.3542 4.02592 18.75V13.25H0V18.9375C0 21.4375 0.660336 23.4063 1.98101 24.8438C3.30168 26.2813 5.15488 27 7.54061 27H11.0873C12.4931 27 13.6753 26.8125 14.6339 26.4375C15.5924 26.0833 16.3593 25.6354 16.9344 25.0938C17.5309 24.5521 17.9569 23.9583 18.2125 23.3125C18.4894 22.6667 18.6279 22.0625 18.6279 21.5C18.6279 20.4375 18.3936 19.75 17.9249 19.4375H22.4825C23.1855 19.4375 23.8352 19.3229 24.4316 19.0938C25.0493 18.8438 25.6351 18.3229 26.1889 17.5313C26.7215 18.3229 27.3179 18.8438 27.9782 19.0938C28.6599 19.3229 29.4054 19.4375 30.2149 19.4375H38.1057C40.2358 19.4375 41.7908 18.9583 42.7706 18C43.7718 17.0208 44.2724 15.6667 44.2724 13.9375V12.2188C44.2724 11.0521 44.1339 10.0729 43.857 9.28125C43.5801 8.48958 43.1967 7.85417 42.7067 7.375C42.2168 6.89583 41.6204 6.55208 40.9174 6.34375C40.2358 6.13542 39.4796 6.03125 38.6489 6.03125C37.7755 6.03125 37.0087 6.1875 36.3483 6.5C35.688 6.8125 35.1342 7.20833 34.6869 7.6875C34.2395 8.16667 33.8987 8.70833 33.6644 9.3125C33.4514 9.89583 33.3449 10.4688 33.3449 11.0313C33.3449 12.1354 33.4727 13.0521 33.7283 13.7813C34.0052 14.5104 34.5803 15.1354 35.4537 15.6563C35.1555 15.5521 34.8999 15.4688 34.6869 15.4062C34.4738 15.3438 34.2502 15.2917 34.0159 15.25C33.8029 15.2083 33.5579 15.1875 33.281 15.1875C33.0254 15.1667 32.6952 15.1563 32.2905 15.1563H30.3746C29.7569 15.1563 29.2563 15.0208 28.8729 14.75C28.4895 14.4583 28.2978 14.0104 28.2978 13.4063V10.1563H24.2399V13.4063C24.2399 14.0104 24.1014 14.4583 23.8245 14.75C23.5476 15.0208 23.1003 15.1563 22.4825 15.1563H9.48967L9.29796 19.4375H13.3558C13.8884 19.4375 14.2505 19.5729 14.4422 19.8438C14.6552 20.1354 14.7617 20.4583 14.7617 20.8125C14.7617 21.1667 14.6978 21.4583 14.57 21.6875C14.4422 21.9375 14.2185 22.1354 13.899 22.2813C13.5795 22.4271 13.1428 22.5313 12.589 22.5938ZM37.3708 10.8438C37.5838 10.5104 37.9779 10.3438 38.553 10.3438C38.9151 10.3438 39.2133 10.4063 39.4477 10.5313C39.682 10.6563 39.863 10.8229 39.9908 11.0313C40.1399 11.2188 40.2358 11.4479 40.2784 11.7188C40.3423 11.9896 40.3743 12.2708 40.3743 12.5625V13.25C40.3743 13.4792 40.3636 13.7604 40.3423 14.0938C40.321 14.4063 40.2571 14.6458 40.1506 14.8125C39.469 14.4583 38.9151 14.1458 38.4891 13.875C38.0844 13.6042 37.7755 13.3542 37.5625 13.125C37.3495 12.8958 37.211 12.6875 37.1471 12.5C37.0832 12.2917 37.0513 12.0833 37.0513 11.875C37.0513 11.5208 37.1578 11.1771 37.3708 10.8438Z" fill="#171917"/>
<path d="M26.3167 6.71875H30.1829V3.09375H26.3167V6.71875Z" fill="#171917"/>
<path d="M21.3962 6.71875H25.2623V3.09375H21.3962V6.71875Z" fill="#171917"/>
<path d="M36.5401 3.78125H40.7577V0H36.5401V3.78125Z" fill="#171917"/>
<path d="M50.5953 19.2188C51.1492 19.3646 51.7349 19.4375 52.3527 19.4375H61.8363C63.6043 19.4375 64.957 18.9688 65.8942 18.0313C66.8315 17.0729 67.3001 15.6458 67.3001 13.75V10.1563H63.2422V13.4063C63.2422 14.5729 62.6564 15.1563 61.4849 15.1563H53.2473C52.3101 15.1563 51.8414 14.6354 51.8414 13.5938V0.0625016H47.7836V14.625C47.7836 15.5417 47.9007 16.3125 48.135 16.9375C48.3906 17.5417 48.7208 18.0313 49.1255 18.4063C49.5516 18.7813 50.0415 19.0521 50.5953 19.2188Z" fill="#171917"/>
<path d="M59.1844 26.4688H63.0505V22.8438H59.1844V26.4688Z" fill="#171917"/>
<path d="M54.2638 26.4688H58.1299V22.8438H54.2638V26.4688Z" fill="#171917"/>
<path d="M66.9132 22.7188H66.5617L66.7534 27H67.6161C68.7238 27 69.7462 26.7813 70.6835 26.3438C71.642 25.9062 72.4621 25.3125 73.1438 24.5625C73.8467 23.8333 74.3899 22.9792 74.7733 22C75.178 21.0208 75.3804 20 75.3804 18.9375V10.1563H71.3225V18.9375C71.3225 19.4167 71.2373 19.875 71.0669 20.3125C70.9178 20.7708 70.6622 21.1771 70.3001 21.5313C69.9592 21.8854 69.5013 22.1667 68.9261 22.375C68.3723 22.6042 67.7013 22.7188 66.9132 22.7188Z" fill="#171917"/>
<path d="M70.6515 6.71875H74.8692V2.9375H70.6515V6.71875Z" fill="#171917"/>
<path d="M81.7046 19.2188C82.2584 19.3646 82.8442 19.4375 83.4619 19.4375H88.5682C90.3362 19.4375 91.6782 18.9688 92.5941 18.0313C93.5314 17.0729 94 15.6458 94 13.75V10.1563H89.9421V13.4063C89.9421 14.0104 89.8037 14.4583 89.5268 14.75C89.2711 15.0208 88.8345 15.1563 88.2167 15.1563H84.3566C83.4193 15.1563 82.9507 14.6354 82.9507 13.5938V0.0625016H78.8928V14.625C78.8928 15.5417 79.01 16.3125 79.2443 16.9375C79.4999 17.5417 79.8301 18.0313 80.2348 18.4063C80.6608 18.7813 81.1507 19.0521 81.7046 19.2188Z" fill="#171917"/>
<path d="M85.9162 26.625H90.1339V22.8438H85.9162V26.625Z" fill="#171917"/>
</svg>
