<svg width="12" height="24" viewBox="0 0 12 24" fill="none" xmlns="http://www.w3.org/2000/svg">
<path d="M4.0116 9.0911V15.1889C4.0116 15.9998 3.37444 16.6475 2.56351 16.6475C1.75785 16.6475 0.978516 15.9945 0.978516 15.1889V9.0911C0.978516 8.29597 1.75785 7.64301 2.56351 7.64301C3.35865 7.64301 4.0116 8.29597 4.0116 9.0911ZM4.58031 17.3584C4.58031 18.222 5.27539 18.917 6.13898 18.917H7.18687L7.20267 22.1344C7.20267 24.0775 10.1094 24.0617 10.1094 22.1344V18.917H12.0682V22.1344C12.0682 24.067 14.9908 24.0722 14.9908 22.1344V18.917H16.0544C16.9075 18.917 17.6026 18.222 17.6026 17.3584V7.91157H4.58031V17.3584ZM17.6394 7.40079H4.52238C4.52238 5.14703 5.87042 3.18816 7.87142 2.1666L6.86566 0.307783C6.71821 0.0497602 7.09208 -0.113479 7.21846 0.107684L8.24002 1.9823C10.0778 1.16611 12.1894 1.20823 13.9429 1.9823L14.9592 0.11295C15.0908 -0.113479 15.4594 0.0550259 15.312 0.313049L14.3062 2.1666C16.2914 3.18816 17.6394 5.14703 17.6394 7.40079ZM8.65075 4.47828C8.65075 4.17813 8.40853 3.92537 8.09785 3.92537C7.7977 3.92537 7.56074 4.17813 7.56074 4.47828C7.56074 4.77843 7.80296 5.03119 8.09785 5.03119C8.40853 5.03119 8.65075 4.77843 8.65075 4.47828ZM14.6221 4.47828C14.6221 4.17813 14.3799 3.92537 14.085 3.92537C13.7744 3.92537 13.5321 4.17813 13.5321 4.47828C13.5321 4.77843 13.7744 5.03119 14.085 5.03119C14.3799 5.03119 14.6221 4.77843 14.6221 4.47828ZM19.6141 7.64301C18.819 7.64301 18.166 8.28017 18.166 9.0911V15.1889C18.166 15.9998 18.819 16.6475 19.6141 16.6475C20.425 16.6475 21.1991 15.9945 21.1991 15.1889V9.0911C21.1991 8.28017 20.4198 7.64301 19.6141 7.64301Z" fill="#171917"/>
</svg>
