<svg width="20" height="22" viewBox="0 0 20 22" fill="none" xmlns="http://www.w3.org/2000/svg">
<path d="M3.28516 8.49271V14.147C3.28516 14.899 2.69434 15.4996 1.94238 15.4996C1.19531 15.4996 0.472656 14.8941 0.472656 14.147V8.49271C0.472656 7.75541 1.19531 7.14994 1.94238 7.14994C2.67969 7.14994 3.28516 7.75541 3.28516 8.49271ZM3.8125 16.1587C3.8125 16.9595 4.45703 17.604 5.25781 17.604H6.22949L6.24414 20.5874C6.24414 22.3892 8.93945 22.3746 8.93945 20.5874V17.604H10.7559V20.5874C10.7559 22.3794 13.4658 22.3843 13.4658 20.5874V17.604H14.4521C15.2432 17.604 15.8877 16.9595 15.8877 16.1587V7.39896H3.8125V16.1587ZM15.9219 6.92533H3.75879C3.75879 4.83549 5.00879 3.01908 6.86426 2.07182L5.93164 0.348183C5.79492 0.108925 6.1416 -0.0424417 6.25879 0.162636L7.20605 1.90092C8.91016 1.14408 10.8682 1.18314 12.4941 1.90092L13.4365 0.167519C13.5586 -0.0424418 13.9004 0.113808 13.7637 0.353066L12.8311 2.07182C14.6719 3.01908 15.9219 4.83549 15.9219 6.92533ZM7.58691 4.21537C7.58691 3.93705 7.3623 3.70268 7.07422 3.70268C6.7959 3.70268 6.57617 3.93705 6.57617 4.21537C6.57617 4.49369 6.80078 4.72807 7.07422 4.72807C7.3623 4.72807 7.58691 4.49369 7.58691 4.21537ZM13.124 4.21537C13.124 3.93705 12.8994 3.70268 12.626 3.70268C12.3379 3.70268 12.1133 3.93705 12.1133 4.21537C12.1133 4.49369 12.3379 4.72807 12.626 4.72807C12.8994 4.72807 13.124 4.49369 13.124 4.21537ZM17.7529 7.14994C17.0156 7.14994 16.4102 7.74076 16.4102 8.49271V14.147C16.4102 14.899 17.0156 15.4996 17.7529 15.4996C18.5049 15.4996 19.2227 14.8941 19.2227 14.147V8.49271C19.2227 7.74076 18.5 7.14994 17.7529 7.14994Z" fill="#24D366"/>
</svg>
