<svg width="56" height="56" viewBox="0 0 56 56" fill="none" xmlns="http://www.w3.org/2000/svg">
<path d="M28.0003 53.106C25.4569 53.106 22.937 52.3594 20.9536 50.8894L10.9203 43.3994C8.26026 41.416 6.18359 37.2627 6.18359 33.9727V16.6127C6.18359 13.0194 8.8203 9.19271 12.2036 7.93271L23.8469 3.56937C26.1569 2.70604 29.797 2.70604 32.107 3.56937L43.7503 7.93271C47.1336 9.19271 49.7702 13.0194 49.7702 16.6127V33.9494C49.7702 37.2627 47.6936 41.3927 45.0336 43.376L35.0003 50.866C33.0636 52.3594 30.5436 53.106 28.0003 53.106ZM25.0836 6.85938L13.4403 11.2227C11.457 11.9694 9.70695 14.4894 9.70695 16.636V33.9727C9.70695 36.1894 11.2702 39.2927 13.0202 40.5994L23.0536 48.0894C25.737 50.096 30.2636 50.096 32.9703 48.0894L43.0036 40.5994C44.7769 39.2694 46.317 36.1894 46.317 33.9727V16.6127C46.317 14.4894 44.5669 11.9694 42.5836 11.1994L30.9403 6.83604C29.3536 6.27604 26.6469 6.27604 25.0836 6.85938Z" fill="#292D32"/>
<path d="M27.9993 37.9167C21.886 37.9167 16.916 32.9467 16.916 26.8333C16.916 20.72 21.886 15.75 27.9993 15.75C34.1127 15.75 39.0827 20.72 39.0827 26.8333C39.0827 32.9467 34.1127 37.9167 27.9993 37.9167ZM27.9993 19.25C23.8227 19.25 20.416 22.6567 20.416 26.8333C20.416 31.01 23.8227 34.4167 27.9993 34.4167C32.176 34.4167 35.5827 31.01 35.5827 26.8333C35.5827 22.6567 32.176 19.25 27.9993 19.25Z" fill="#292D32"/>
<path d="M25.6664 30.9161C25.0831 30.9161 24.4997 30.6128 24.1731 30.0761C23.6831 29.2361 23.9397 28.1628 24.7797 27.6728L26.5531 26.5995C26.7398 26.4828 26.8331 26.2961 26.8331 26.1095V23.9395C26.8331 22.9828 27.6264 22.1895 28.5831 22.1895C29.5398 22.1895 30.3331 22.9595 30.3331 23.9161V26.0861C30.3331 27.5095 29.5631 28.8628 28.3497 29.5861L26.5531 30.6595C26.2964 30.8461 25.9698 30.9161 25.6664 30.9161Z" fill="#292D32"/>
</svg>
