<svg width="56" height="56" viewBox="0 0 56 56" fill="none" xmlns="http://www.w3.org/2000/svg">
<path d="M30.3327 21.584H4.66602C3.70935 21.584 2.91602 20.7907 2.91602 19.834C2.91602 18.8773 3.70935 18.084 4.66602 18.084H30.3327C31.2893 18.084 32.0827 18.8773 32.0827 19.834C32.0827 20.7907 31.2893 21.584 30.3327 21.584Z" fill="#292D32"/>
<path d="M18.6667 40.25H14C13.0433 40.25 12.25 39.4567 12.25 38.5C12.25 37.5433 13.0433 36.75 14 36.75H18.6667C19.6233 36.75 20.4167 37.5433 20.4167 38.5C20.4167 39.4567 19.6233 40.25 18.6667 40.25Z" fill="#292D32"/>
<path d="M33.8333 40.25H24.5C23.5433 40.25 22.75 39.4567 22.75 38.5C22.75 37.5433 23.5433 36.75 24.5 36.75H33.8333C34.79 36.75 35.5833 37.5433 35.5833 38.5C35.5833 39.4567 34.79 40.25 33.8333 40.25Z" fill="#292D32"/>
<path d="M40.9727 49.5827H15.026C5.73935 49.5827 2.91602 46.7826 2.91602 37.5893V18.4094C2.91602 9.21605 5.73935 6.41602 15.026 6.41602H30.986C31.9427 6.41602 32.736 7.20935 32.736 8.16602C32.736 9.12268 31.9427 9.91602 30.986 9.91602H15.026C7.69935 9.91602 6.41602 11.176 6.41602 18.4094V37.5893C6.41602 44.8226 7.69935 46.0827 15.026 46.0827H40.9727C48.2993 46.0827 49.5827 44.8226 49.5827 37.5893V26.4361C49.5827 25.4794 50.376 24.6861 51.3327 24.6861C52.2893 24.6861 53.0827 25.4794 53.0827 26.4361V37.5893C53.0827 46.7826 50.2593 49.5827 40.9727 49.5827Z" fill="#292D32"/>
<path d="M46.946 15.1673H39.666C38.7093 15.1673 37.916 14.374 37.916 13.4173V7.58398C37.916 6.62732 38.7093 5.83398 39.666 5.83398H46.9693C49.466 5.83398 51.636 8.00398 51.636 10.5007C51.6127 13.0673 49.536 15.1673 46.946 15.1673ZM41.416 11.6673H46.9693C47.6227 11.6673 48.136 11.154 48.136 10.5007C48.136 9.98732 47.576 9.33398 46.9693 9.33398H41.416V11.6673Z" fill="#292D32"/>
<path d="M47.996 20.9993H39.666C38.7093 20.9993 37.916 20.206 37.916 19.2493V13.416C37.916 12.4593 38.7093 11.666 39.666 11.666H47.996C50.796 11.666 53.0827 13.766 53.0827 16.3327C53.0827 18.8993 50.796 20.9993 47.996 20.9993ZM41.416 17.4993H47.996C48.8593 17.4993 49.5827 16.9627 49.5827 16.3327C49.5827 15.7027 48.8593 15.166 47.996 15.166H41.416V17.4993Z" fill="#292D32"/>
<path d="M43.7734 23.9167C42.8168 23.9167 42.0234 23.1233 42.0234 22.1667V19.25C42.0234 18.2933 42.8168 17.5 43.7734 17.5C44.7301 17.5 45.5234 18.2933 45.5234 19.25V22.1667C45.5234 23.1467 44.7534 23.9167 43.7734 23.9167Z" fill="#292D32"/>
<path d="M43.7734 9.33268C42.8168 9.33268 42.0234 8.53935 42.0234 7.58268V4.66602C42.0234 3.70935 42.8168 2.91602 43.7734 2.91602C44.7301 2.91602 45.5234 3.70935 45.5234 4.66602V7.58268C45.5234 8.53935 44.7534 9.33268 43.7734 9.33268Z" fill="#292D32"/>
<path d="M42.444 9.33398H37.334C36.3773 9.33398 35.584 8.54065 35.584 7.58398C35.584 6.62732 36.3773 5.83398 37.334 5.83398H42.444C43.4007 5.83398 44.194 6.62732 44.194 7.58398C44.194 8.54065 43.4007 9.33398 42.444 9.33398Z" fill="#292D32"/>
<path d="M42.444 21H37.334C36.3773 21 35.584 20.2067 35.584 19.25C35.584 18.2933 36.3773 17.5 37.334 17.5H42.444C43.4007 17.5 44.194 18.2933 44.194 19.25C44.194 20.2067 43.4007 21 42.444 21Z" fill="#292D32"/>
</svg>
