<svg width="56" height="56" viewBox="0 0 56 56" fill="none" xmlns="http://www.w3.org/2000/svg">
<path d="M37.2637 53.084H18.597C10.617 53.084 7.51367 49.9806 7.51367 42.0007V23.334C7.51367 22.3773 8.30701 21.584 9.26367 21.584H46.597C47.5537 21.584 48.347 22.3773 48.347 23.334V42.0007C48.347 49.9806 45.2437 53.084 37.2637 53.084ZM11.0137 25.084V42.0007C11.0137 48.0207 12.577 49.584 18.597 49.584H37.2637C43.2837 49.584 44.847 48.0207 44.847 42.0007V25.084H11.0137Z" fill="#292D32"/>
<path d="M45.5007 25.0827H10.5007C6.41732 25.0827 4.08398 22.7493 4.08398 18.666V16.3327C4.08398 12.2493 6.41732 9.91602 10.5007 9.91602H45.5007C49.4673 9.91602 51.9173 12.366 51.9173 16.3327V18.666C51.9173 22.6327 49.4673 25.0827 45.5007 25.0827ZM10.5007 13.416C8.37732 13.416 7.58398 14.2093 7.58398 16.3327V18.666C7.58398 20.7893 8.37732 21.5827 10.5007 21.5827H45.5007C47.554 21.5827 48.4173 20.7193 48.4173 18.666V16.3327C48.4173 14.2793 47.554 13.416 45.5007 13.416H10.5007Z" fill="#292D32"/>
<path d="M27.1605 13.4161H14.2805C13.7905 13.4161 13.3239 13.2061 12.9972 12.8561C11.5739 11.2927 11.6205 8.8894 13.1139 7.39607L16.4272 4.08273C17.9672 2.54273 20.5105 2.54273 22.0505 4.08273L28.3972 10.4294C28.8872 10.9194 29.0505 11.6894 28.7705 12.3427C28.5139 12.9961 27.8839 13.4161 27.1605 13.4161ZM15.5639 9.91607H22.9605L19.5772 6.55607C19.3905 6.3694 19.0872 6.3694 18.9005 6.55607L15.5872 9.8694C15.5872 9.89273 15.5639 9.89273 15.5639 9.91607Z" fill="#292D32"/>
<path d="M41.6969 13.4161H28.8169C28.1169 13.4161 27.4635 12.9961 27.2069 12.3427C26.9269 11.6894 27.0902 10.9427 27.5802 10.4294L33.9269 4.08273C35.4669 2.54273 38.0102 2.54273 39.5502 4.08273L42.8635 7.39607C44.3569 8.8894 44.4269 11.2927 42.9802 12.8561C42.6535 13.2061 42.1869 13.4161 41.6969 13.4161ZM33.0635 9.91607H40.4602C40.4369 9.89273 40.4369 9.89273 40.4135 9.8694L37.1002 6.55607C36.9135 6.3694 36.6102 6.3694 36.4235 6.55607L33.0635 9.91607Z" fill="#292D32"/>
<path d="M23.1927 39.434C22.5394 39.434 21.8627 39.2707 21.256 38.944C19.926 38.2207 19.1094 36.844 19.1094 35.3507V23.334C19.1094 22.3773 19.9027 21.584 20.8594 21.584H34.9527C35.9094 21.584 36.7027 22.3773 36.7027 23.334V35.304C36.7027 36.8207 35.886 38.1973 34.556 38.8973C33.226 39.6207 31.616 39.5273 30.356 38.6873L28.2794 37.2873C28.0927 37.1473 27.836 37.1473 27.626 37.2873L25.4327 38.734C24.756 39.2007 23.9627 39.434 23.1927 39.434ZM22.6094 25.084V35.3273C22.6094 35.6307 22.796 35.7707 22.9127 35.8407C23.0294 35.9107 23.2627 35.9807 23.5194 35.8173L25.7127 34.3707C27.0894 33.4607 28.8627 33.4607 30.216 34.3707L32.2927 35.7707C32.5494 35.934 32.7827 35.864 32.8994 35.794C33.016 35.724 33.2027 35.584 33.2027 35.2807V25.0607H22.6094V25.084Z" fill="#292D32"/>
</svg>
