<svg width="56" height="56" viewBox="0 0 56 56" fill="none" xmlns="http://www.w3.org/2000/svg">
<path d="M28 53.0828C26.3667 53.0828 24.71 52.4528 23.4733 51.2161L19.4833 47.2728C18.5033 46.2928 17.15 45.7561 15.7734 45.7561H14C9.17 45.7561 5.25 41.8595 5.25 37.0761V11.6194C5.25 6.83605 9.17 2.93945 14 2.93945H42C46.83 2.93945 50.75 6.83605 50.75 11.6194V37.0761C50.75 41.8595 46.83 45.7561 42 45.7561H40.2266C38.85 45.7561 37.4967 46.3161 36.5167 47.2728L32.5267 51.2161C31.29 52.4528 29.6333 53.0828 28 53.0828ZM14 6.4161C11.1067 6.4161 8.75 8.74936 8.75 11.596V37.0528C8.75 39.9228 11.1067 42.2327 14 42.2327H15.7734C18.0834 42.2327 20.3233 43.1661 21.9567 44.7761L25.9467 48.7194C27.09 49.8394 28.9334 49.8394 30.0767 48.7194L34.0667 44.7761C35.7 43.1661 37.94 42.2327 40.25 42.2327H42C44.8933 42.2327 47.25 39.8994 47.25 37.0528V11.596C47.25 8.72603 44.8933 6.4161 42 6.4161H14Z" fill="#292D32"/>
<path d="M28.0001 36.7507C27.5801 36.7507 27.1601 36.6806 26.7868 36.5639C23.7068 35.5139 15.7734 30.8707 15.7734 22.1907C15.7734 17.9907 19.1801 14.584 23.3568 14.584C25.0601 14.584 26.6934 15.1673 28.0234 16.194C29.3534 15.1673 30.9868 14.584 32.6901 14.584C36.8668 14.584 40.2734 17.9907 40.2734 22.1907C40.2734 30.8707 32.3168 35.5139 29.2601 36.5639C28.8401 36.6806 28.4201 36.7507 28.0001 36.7507ZM23.3334 18.084C21.0934 18.084 19.2501 19.9273 19.2501 22.1907C19.2501 28.794 25.6667 32.4807 27.9067 33.2507C27.9301 33.2507 28.0234 33.2507 28.0934 33.2507C30.3568 32.4573 36.7267 28.7707 36.7267 22.214C36.7267 19.9507 34.9067 18.1073 32.6434 18.1073C31.3601 18.1073 30.1701 18.714 29.3767 19.7407C28.7234 20.6274 27.2301 20.6274 26.5768 19.7407C25.8301 18.6907 24.6401 18.084 23.3334 18.084Z" fill="#292D32"/>
</svg>
