<svg width="56" height="56" viewBox="0 0 56 56" fill="none" xmlns="http://www.w3.org/2000/svg">
<path d="M27.9998 31.0327C27.6965 31.0327 27.3931 30.9627 27.1131 30.7994L6.50982 18.8761C5.66982 18.3861 5.38977 17.3127 5.87977 16.4727C6.36977 15.6327 7.41977 15.3527 8.2831 15.8427L27.9998 27.2527L47.5998 15.9127C48.4398 15.4227 49.5131 15.7261 50.0031 16.5428C50.4931 17.3828 50.1898 18.456 49.3731 18.946L28.9098 30.7994C28.6065 30.9394 28.3031 31.0327 27.9998 31.0327Z" fill="#292D32"/>
<path d="M28 52.1731C27.0433 52.1731 26.25 51.3798 26.25 50.4231V29.2598C26.25 28.3031 27.0433 27.5098 28 27.5098C28.9567 27.5098 29.75 28.3031 29.75 29.2598V50.4231C29.75 51.3798 28.9567 52.1731 28 52.1731Z" fill="#292D32"/>
<path d="M27.9994 53.0826C25.8761 53.0826 23.8461 52.5925 22.3061 51.7292L9.84606 44.8226C6.46273 42.956 3.80273 38.4526 3.80273 34.5793V21.3725C3.80273 17.4992 6.46273 13.0193 9.84606 11.1293L22.3061 4.22258C25.4794 2.44924 30.4727 2.44924 33.6694 4.22258L46.1294 11.1293C49.5127 12.996 52.1727 17.4992 52.1727 21.3725V29.9126C52.1727 30.8693 51.3794 31.6626 50.4227 31.6626C49.466 31.6626 48.6727 30.8693 48.6727 29.9126V21.3725C48.6727 18.8059 46.6894 15.446 44.4494 14.2093L31.9894 7.3026C29.866 6.1126 26.156 6.1126 24.0327 7.3026L11.5727 14.2093C9.30937 15.4693 7.34938 18.8059 7.34938 21.3725V34.5793C7.34938 37.1459 9.3327 40.506 11.5727 41.7426L24.0327 48.6492C26.086 49.7925 29.9594 49.7925 31.9894 48.6492C32.8294 48.1825 33.9028 48.486 34.3694 49.326C34.8361 50.166 34.5327 51.2392 33.6927 51.7059C32.1527 52.5925 30.1227 53.0826 27.9994 53.0826Z" fill="#292D32"/>
<path d="M44.8007 51.6834C39.714 51.6834 35.584 47.5534 35.584 42.4667C35.584 37.38 39.714 33.25 44.8007 33.25C49.8873 33.25 54.0173 37.38 54.0173 42.4667C54.0173 47.5534 49.8873 51.6834 44.8007 51.6834ZM44.8007 36.75C41.6507 36.75 39.084 39.3167 39.084 42.4667C39.084 45.6167 41.6507 48.1834 44.8007 48.1834C47.9507 48.1834 50.5173 45.6167 50.5173 42.4667C50.5173 39.3167 47.9507 36.75 44.8007 36.75Z" fill="#292D32"/>
<path d="M53.6673 53.0834C53.224 53.0834 52.7807 52.9202 52.4307 52.5702L50.0973 50.2368C49.4207 49.5602 49.4207 48.44 50.0973 47.7634C50.774 47.0867 51.894 47.0867 52.5707 47.7634L54.904 50.0967C55.5807 50.7734 55.5807 51.8935 54.904 52.5702C54.554 52.9202 54.1107 53.0834 53.6673 53.0834Z" fill="#292D32"/>
</svg>
