<svg width="25" height="24" viewBox="0 0 25 24" fill="none" xmlns="http://www.w3.org/2000/svg">
<path d="M12.2227 2C6.71266 2 2.22266 6.49 2.22266 12C2.22266 17.51 6.71266 22 12.2227 22C17.7327 22 22.2227 17.51 22.2227 12C22.2227 6.49 17.7327 2 12.2227 2ZM8.22266 13C7.66266 13 7.22266 12.55 7.22266 12C7.22266 11.45 7.67266 11 8.22266 11C8.77266 11 9.22266 11.45 9.22266 12C9.22266 12.55 8.78266 13 8.22266 13ZM12.2227 13C11.6627 13 11.2227 12.55 11.2227 12C11.2227 11.45 11.6727 11 12.2227 11C12.7727 11 13.2227 11.45 13.2227 12C13.2227 12.55 12.7827 13 12.2227 13ZM16.2227 13C15.6627 13 15.2227 12.55 15.2227 12C15.2227 11.45 15.6727 11 16.2227 11C16.7727 11 17.2227 11.45 17.2227 12C17.2227 12.55 16.7827 13 16.2227 13Z" fill="white"/>
</svg>
