<svg width="56" height="56" viewBox="0 0 56 56" fill="none" xmlns="http://www.w3.org/2000/svg">
<path d="M27.9993 53.0831C26.5293 53.0831 25.1527 52.5233 24.126 51.4733L20.5794 47.9266C20.2994 47.6466 19.5527 47.3432 19.1794 47.3432H14.1393C11.106 47.3432 8.656 44.893 8.656 41.8597V36.8199C8.656 36.4465 8.35266 35.6999 8.07266 35.4199L4.52602 31.8732C3.49935 30.8465 2.91602 29.4698 2.91602 27.9998C2.91602 26.5298 3.47602 25.1531 4.52602 24.1264L8.07266 20.5797C8.35266 20.2997 8.656 19.5531 8.656 19.1797V14.1399C8.656 11.1066 11.106 8.65637 14.1393 8.65637H19.1794C19.5527 8.65637 20.2994 8.35304 20.5794 8.07304L24.126 4.52633C26.1793 2.47299 29.8194 2.47299 31.8727 4.52633L35.4193 8.07304C35.6993 8.35304 36.446 8.65637 36.8193 8.65637H41.8594C44.8927 8.65637 47.3427 11.1066 47.3427 14.1399V19.1797C47.3427 19.5531 47.646 20.2997 47.926 20.5797L51.4727 24.1264C52.4993 25.1531 53.0827 26.5298 53.0827 27.9998C53.0827 29.4698 52.5227 30.8465 51.4727 31.8732L47.926 35.4199C47.646 35.6999 47.3427 36.4465 47.3427 36.8199V41.8597C47.3427 44.893 44.8927 47.3432 41.8594 47.3432H36.8193C36.446 47.3432 35.6993 47.6466 35.4193 47.9266L31.8727 51.4733C30.846 52.5233 29.4693 53.0831 27.9993 53.0831ZM10.546 32.9465C11.4793 33.8798 12.156 35.5132 12.156 36.8199V41.8597C12.156 42.9563 13.0427 43.8432 14.1393 43.8432H19.1794C20.486 43.8432 22.1194 44.5198 23.0527 45.4531L26.5993 48.9998C27.346 49.7465 28.6527 49.7465 29.3994 48.9998L32.946 45.4531C33.8793 44.5198 35.5127 43.8432 36.8193 43.8432H41.8594C42.956 43.8432 43.8427 42.9563 43.8427 41.8597V36.8199C43.8427 35.5132 44.5194 33.8798 45.4527 32.9465L48.9993 29.3997C49.3727 29.0264 49.5827 28.5365 49.5827 27.9998C49.5827 27.4631 49.3727 26.9732 48.9993 26.5999L45.4527 23.0531C44.5194 22.1198 43.8427 20.4864 43.8427 19.1797V14.1399C43.8427 13.0433 42.956 12.1564 41.8594 12.1564H36.8193C35.5127 12.1564 33.8793 11.4798 32.946 10.5465L29.3994 6.9998C28.6527 6.25313 27.346 6.25313 26.5993 6.9998L23.0527 10.5465C22.1194 11.4798 20.486 12.1564 19.1794 12.1564H14.1393C13.0427 12.1564 12.156 13.0433 12.156 14.1399V19.1797C12.156 20.4864 11.4793 22.1198 10.546 23.0531L6.99935 26.5999C6.62602 26.9732 6.41602 27.4631 6.41602 27.9998C6.41602 28.5365 6.62602 29.0264 6.99935 29.3997L10.546 32.9465Z" fill="#292D32"/>
<path d="M35.0012 37.3327C33.6946 37.3327 32.6445 36.2827 32.6445 34.9993C32.6445 33.716 33.6945 32.666 34.9779 32.666C36.2612 32.666 37.3112 33.716 37.3112 34.9993C37.3112 36.2827 36.2846 37.3327 35.0012 37.3327Z" fill="#292D32"/>
<path d="M21.0227 23.3327C19.716 23.3327 18.666 22.2827 18.666 20.9993C18.666 19.716 19.716 18.666 20.9993 18.666C22.2827 18.666 23.3327 19.716 23.3327 20.9993C23.3327 22.2827 22.306 23.3327 21.0227 23.3327Z" fill="#292D32"/>
<path d="M21 36.7501C20.5567 36.7501 20.1134 36.5868 19.7634 36.2368C19.0867 35.5602 19.0867 34.44 19.7634 33.7634L33.7634 19.7634C34.44 19.0867 35.56 19.0867 36.2367 19.7634C36.9134 20.44 36.9134 21.5602 36.2367 22.2368L22.2367 36.2368C21.8867 36.5868 21.4434 36.7501 21 36.7501Z" fill="#292D32"/>
</svg>
